<svg width="1340" height="134" viewBox="0 0 1340 134" fill="none" xmlns="http://www.w3.org/2000/svg">
<path d="M374.259 47.8124H346.884C346.384 44.2708 345.363 41.1249 343.821 38.3749C342.28 35.5833 340.3 33.2083 337.884 31.2499C335.467 29.2916 332.675 27.7916 329.509 26.7499C326.384 25.7083 322.988 25.1874 319.321 25.1874C312.696 25.1874 306.925 26.8333 302.009 30.1249C297.092 33.3749 293.28 38.1249 290.571 44.3749C287.863 50.5833 286.509 58.1249 286.509 66.9999C286.509 76.1249 287.863 83.7916 290.571 89.9999C293.321 96.2083 297.155 100.896 302.071 104.062C306.988 107.229 312.675 108.812 319.134 108.812C322.759 108.812 326.113 108.333 329.196 107.375C332.321 106.417 335.092 105.021 337.509 103.187C339.925 101.312 341.925 99.0416 343.509 96.3749C345.134 93.7083 346.259 90.6666 346.884 87.2499L374.259 87.3749C373.55 93.2499 371.78 98.9166 368.946 104.375C366.155 109.792 362.384 114.646 357.634 118.937C352.925 123.187 347.3 126.562 340.759 129.062C334.259 131.521 326.905 132.75 318.696 132.75C307.28 132.75 297.071 130.167 288.071 125C279.113 119.833 272.03 112.354 266.821 102.562C261.655 92.7708 259.071 80.9166 259.071 66.9999C259.071 53.0416 261.696 41.1666 266.946 31.3749C272.196 21.5833 279.321 14.1249 288.321 8.99995C297.321 3.83327 307.446 1.24994 318.696 1.24994C326.113 1.24994 332.988 2.29161 339.321 4.37494C345.696 6.45827 351.342 9.49994 356.259 13.4999C361.175 17.4583 365.175 22.3124 368.259 28.0624C371.384 33.8124 373.384 40.3958 374.259 47.8124Z" fill="white"/>
<path d="M442.747 1.24994C449.331 1.24994 455.664 2.3541 461.747 4.56244C467.872 6.77077 473.331 10.2916 478.122 15.1249C482.956 19.9583 486.768 26.3749 489.56 34.3749C492.393 42.3333 493.831 52.1041 493.872 63.6874C493.872 74.5624 492.643 84.2708 490.185 92.8124C487.768 101.312 484.289 108.542 479.747 114.5C475.206 120.458 469.727 125 463.31 128.125C456.893 131.208 449.727 132.75 441.81 132.75C433.268 132.75 425.727 131.104 419.185 127.812C412.643 124.479 407.372 119.958 403.372 114.25C399.414 108.5 397.018 102.042 396.185 94.8749H422.872C423.914 99.5416 426.102 103.167 429.435 105.75C432.768 108.292 436.893 109.562 441.81 109.562C450.143 109.562 456.477 105.937 460.81 98.6874C465.143 91.3958 467.331 81.4166 467.372 68.7499H466.497C464.581 72.4999 461.997 75.7291 458.747 78.4374C455.497 81.1041 451.768 83.1666 447.56 84.6249C443.393 86.0833 438.956 86.8124 434.247 86.8124C426.706 86.8124 419.977 85.0416 414.06 81.4999C408.143 77.9583 403.477 73.0833 400.06 66.8749C396.643 60.6666 394.935 53.5833 394.935 45.6249C394.893 37.0416 396.872 29.3958 400.872 22.6874C404.872 15.9791 410.456 10.7291 417.622 6.93745C424.831 3.10411 433.206 1.20827 442.747 1.24994ZM442.935 22.4999C438.727 22.4999 434.977 23.4999 431.685 25.4999C428.435 27.4999 425.852 30.1874 423.935 33.5624C422.06 36.9374 421.143 40.7083 421.185 44.8749C421.185 49.0833 422.102 52.8749 423.935 56.2499C425.81 59.5833 428.352 62.2499 431.56 64.2499C434.81 66.2083 438.518 67.1874 442.685 67.1874C445.81 67.1874 448.706 66.6041 451.372 65.4374C454.039 64.2708 456.352 62.6666 458.31 60.6249C460.31 58.5416 461.872 56.1458 462.997 53.4374C464.122 50.7291 464.685 47.8541 464.685 44.8124C464.643 40.7708 463.685 37.0624 461.81 33.6874C459.935 30.3124 457.352 27.6041 454.06 25.5624C450.768 23.5208 447.06 22.4999 442.935 22.4999Z" fill="white"/>
<path d="M571.83 2.99994V131H544.768V28.6874H544.017L514.705 47.0624V23.0624L546.393 2.99994H571.83Z" fill="white"/>
<path d="M720.214 39.8124C719.714 34.7708 717.568 30.8541 713.776 28.0624C709.985 25.2708 704.839 23.8749 698.339 23.8749C693.922 23.8749 690.193 24.4999 687.151 25.7499C684.11 26.9583 681.776 28.6458 680.151 30.8124C678.568 32.9791 677.776 35.4374 677.776 38.1874C677.693 40.4791 678.172 42.4791 679.214 44.1874C680.297 45.8958 681.776 47.3749 683.651 48.6249C685.526 49.8333 687.693 50.8958 690.151 51.8124C692.61 52.6874 695.235 53.4374 698.026 54.0624L709.526 56.8124C715.11 58.0624 720.235 59.7291 724.901 61.8124C729.568 63.8958 733.61 66.4583 737.026 69.4999C740.443 72.5416 743.089 76.1249 744.964 80.2499C746.88 84.3749 747.86 89.1041 747.901 94.4374C747.86 102.271 745.86 109.062 741.901 114.812C737.985 120.521 732.318 124.958 724.901 128.125C717.526 131.25 708.63 132.812 698.214 132.812C687.88 132.812 678.88 131.229 671.214 128.062C663.589 124.896 657.63 120.208 653.339 114C649.089 107.75 646.86 100.021 646.651 90.8124H672.839C673.13 95.1041 674.36 98.6874 676.526 101.562C678.735 104.396 681.672 106.542 685.339 108C689.047 109.417 693.235 110.125 697.901 110.125C702.485 110.125 706.464 109.458 709.839 108.125C713.255 106.792 715.901 104.937 717.776 102.562C719.651 100.187 720.589 97.4583 720.589 94.3749C720.589 91.4999 719.735 89.0833 718.026 87.1249C716.36 85.1666 713.901 83.4999 710.651 82.1249C707.443 80.7499 703.505 79.4999 698.839 78.3749L684.901 74.8749C674.11 72.2499 665.589 68.1458 659.339 62.5624C653.089 56.9791 649.985 49.4583 650.026 39.9999C649.985 32.2499 652.047 25.4791 656.214 19.6874C660.422 13.8958 666.193 9.37494 673.526 6.12494C680.86 2.87494 689.193 1.24994 698.526 1.24994C708.026 1.24994 716.318 2.87494 723.401 6.12494C730.526 9.37494 736.068 13.8958 740.026 19.6874C743.985 25.4791 746.026 32.1874 746.151 39.8124H720.214Z" fill="white"/>
<path d="M764.749 25.3124V2.99994H869.874V25.3124H830.687V131H803.937V25.3124H764.749Z" fill="white"/>
<path d="M969.769 2.99994H996.832V86.1249C996.832 95.4583 994.603 103.625 990.144 110.625C985.728 117.625 979.54 123.083 971.582 127C963.624 130.875 954.353 132.812 943.769 132.812C933.144 132.812 923.853 130.875 915.894 127C907.936 123.083 901.749 117.625 897.332 110.625C892.915 103.625 890.707 95.4583 890.707 86.1249V2.99994H917.769V83.8124C917.769 88.6874 918.832 93.0208 920.957 96.8124C923.124 100.604 926.165 103.583 930.082 105.75C933.999 107.917 938.561 109 943.769 109C949.019 109 953.582 107.917 957.457 105.75C961.374 103.583 964.394 100.604 966.519 96.8124C968.686 93.0208 969.769 88.6874 969.769 83.8124V2.99994Z" fill="white"/>
<path d="M1067.99 131H1022.62V2.99994H1068.37C1081.24 2.99994 1092.33 5.56244 1101.62 10.6874C1110.91 15.7708 1118.06 23.0833 1123.06 32.6249C1128.1 42.1666 1130.62 53.5833 1130.62 66.8749C1130.62 80.2083 1128.1 91.6666 1123.06 101.25C1118.06 110.833 1110.87 118.187 1101.49 123.312C1092.16 128.437 1080.99 131 1067.99 131ZM1049.68 107.812H1066.87C1074.87 107.812 1081.6 106.396 1087.06 103.562C1092.56 100.687 1096.68 96.2499 1099.43 90.2499C1102.22 84.2083 1103.62 76.4166 1103.62 66.8749C1103.62 57.4166 1102.22 49.6874 1099.43 43.6874C1096.68 37.6874 1092.58 33.2708 1087.12 30.4374C1081.66 27.6041 1074.93 26.1874 1066.93 26.1874H1049.68V107.812Z" fill="white"/>
<path d="M1181.25 2.99994V131H1154.18V2.99994H1181.25Z" fill="white"/>
<path d="M1324.66 66.9999C1324.66 80.9583 1322.01 92.8333 1316.72 102.625C1311.47 112.417 1304.3 119.896 1295.22 125.062C1286.18 130.187 1276.01 132.75 1264.72 132.75C1253.34 132.75 1243.14 130.167 1234.09 125C1225.05 119.833 1217.91 112.354 1212.66 102.562C1207.41 92.7708 1204.78 80.9166 1204.78 66.9999C1204.78 53.0416 1207.41 41.1666 1212.66 31.3749C1217.91 21.5833 1225.05 14.1249 1234.09 8.99995C1243.14 3.83327 1253.34 1.24994 1264.72 1.24994C1276.01 1.24994 1286.18 3.83327 1295.22 8.99995C1304.3 14.1249 1311.47 21.5833 1316.72 31.3749C1322.01 41.1666 1324.66 53.0416 1324.66 66.9999ZM1297.22 66.9999C1297.22 57.9583 1295.87 50.3333 1293.16 44.1249C1290.49 37.9166 1286.72 33.2083 1281.84 29.9999C1276.97 26.7916 1271.26 25.1874 1264.72 25.1874C1258.18 25.1874 1252.47 26.7916 1247.59 29.9999C1242.72 33.2083 1238.93 37.9166 1236.22 44.1249C1233.55 50.3333 1232.22 57.9583 1232.22 66.9999C1232.22 76.0416 1233.55 83.6666 1236.22 89.8749C1238.93 96.0833 1242.72 100.792 1247.59 104C1252.47 107.208 1258.18 108.812 1264.72 108.812C1271.26 108.812 1276.97 107.208 1281.84 104C1286.72 100.792 1290.49 96.0833 1293.16 89.8749C1295.87 83.6666 1297.22 76.0416 1297.22 66.9999Z" fill="white"/>
<path fill-rule="evenodd" clip-rule="evenodd" d="M189.118 85.6249H169.364V131H142.301V2.99994H192.801C202.468 2.99994 210.718 4.72911 217.551 8.18744C224.426 11.6041 229.655 16.4583 233.239 22.7499C236.864 28.9999 238.676 36.3541 238.676 44.8124C238.676 53.3124 236.843 60.6249 233.176 66.7499C229.51 72.8333 224.197 77.4999 217.239 80.7499C216.857 80.9292 216.471 81.1035 216.081 81.2729L243.239 131H213.364L189.118 85.6249ZM200.614 61.7499C197.197 63.1666 192.905 63.8749 187.739 63.8749H169.364V25.1249H187.614C192.822 25.1249 197.135 25.8958 200.551 27.4374C204.01 28.9374 206.572 31.1458 208.239 34.0624C209.947 36.9791 210.801 40.5624 210.801 44.8124C210.801 49.0208 209.947 52.5416 208.239 55.3749C206.572 58.2083 204.03 60.3333 200.614 61.7499Z" fill="white"/>
<path d="M0.1875 131H29.1875L38.6827 101.812H84.8983L94.375 131H123.375L79.25 2.99994H44.375L0.1875 131ZM62.3125 32.2499L78.0394 80.6874H45.555L61.3125 32.2499H62.3125Z" fill="white"/>
</svg>
