<svg width="38" height="38" viewBox="0 0 38 38" fill="none" xmlns="http://www.w3.org/2000/svg">
<g clip-path="url(#clip0_1060_48)">
<path d="M33.9992 18.9803C34.0969 28.8697 25.256 36.9221 15.4235 35.9143C14.7723 35.848 14.1123 35.7698 13.4867 35.6117C13.4323 35.5916 13.4455 35.5788 13.5241 35.5724C13.8315 35.5523 14.1914 35.5742 14.5083 35.5541C25.9452 35.4243 34.6436 22.0185 28.4155 11.8302C24.6088 5.53162 15.804 3.56983 9.6937 7.66025C4.1639 11.1747 1.98266 18.5104 4.71469 24.4859C6.43327 28.2449 10.2929 31.8627 14.6028 32.158C16.6621 32.2992 18.8685 31.1986 20.3761 29.8666C21.8896 28.5297 22.9852 26.7233 23.4474 24.7546C23.7402 23.5073 23.7731 22.2028 23.5278 20.9444C23.0807 18.2627 21.0123 15.0398 18.315 14.2441C15.5505 13.4364 12.5477 15.379 12.1636 18.2394C11.5493 22.0729 15.6208 25.0938 19.1087 23.3994C20.8753 22.5766 22.0175 20.672 21.8987 18.7143C21.8928 18.4177 21.817 18.1672 21.8627 18.0159C21.9179 18.0255 21.9266 18.095 21.9823 18.1877C22.1422 18.5283 22.2696 18.8999 22.3586 19.2692C23.4566 23.7353 19.1197 27.7289 14.7663 26.252C11.5945 25.2501 9.35163 22.0478 9.51239 18.7157C9.63707 16.1277 10.9697 13.819 13.193 12.4623C15.4756 11.0696 18.3186 10.949 20.6816 12.2174C23.1118 13.5219 24.8317 16.0111 25.73 18.5708C25.9342 19.1522 26.0936 19.7496 26.2069 20.3552C28.1885 31.1227 16.305 38.9196 7.25717 32.9094C1.03956 28.7006 -1.70159 20.1267 1.09528 12.9674C8.16602 -4.57993 33.5744 0.0320175 33.9992 18.9712V18.9808V18.9803Z" fill="url(#paint0_linear_1060_48)"/>
</g>
<defs>
<linearGradient id="paint0_linear_1060_48" x1="24.5193" y1="33.9079" x2="11.135" y2="2.10199" gradientUnits="userSpaceOnUse">
<stop stop-color="#E61417"/>
<stop offset="1" stop-color="#FF8C00"/>
</linearGradient>
<clipPath id="clip0_1060_48">
<rect width="34" height="34" fill="white" transform="translate(0 2)"/>
</clipPath>
</defs>
</svg>
