<svg width="158" height="38" viewBox="0 0 158 38" fill="none" xmlns="http://www.w3.org/2000/svg">
<g clip-path="url(#clip0_1060_22)">
<path d="M33.9992 18.9803C34.0969 28.8697 25.256 36.9221 15.4235 35.9143C14.7723 35.848 14.1123 35.7698 13.4867 35.6117C13.4323 35.5916 13.4455 35.5788 13.5241 35.5724C13.8315 35.5523 14.1914 35.5742 14.5083 35.5541C25.9452 35.4243 34.6436 22.0185 28.4155 11.8302C24.6088 5.53162 15.804 3.56983 9.6937 7.66025C4.1639 11.1747 1.98266 18.5104 4.71469 24.4859C6.43327 28.2449 10.2929 31.8627 14.6028 32.158C16.6621 32.2992 18.8685 31.1986 20.3761 29.8666C21.8896 28.5297 22.9852 26.7233 23.4474 24.7546C23.7402 23.5073 23.7731 22.2028 23.5278 20.9444C23.0807 18.2627 21.0123 15.0398 18.315 14.2441C15.5505 13.4364 12.5477 15.379 12.1636 18.2394C11.5493 22.0729 15.6208 25.0938 19.1087 23.3994C20.8753 22.5766 22.0175 20.672 21.8987 18.7143C21.8928 18.4177 21.817 18.1672 21.8627 18.0159C21.9179 18.0255 21.9266 18.095 21.9823 18.1877C22.1422 18.5283 22.2696 18.8999 22.3586 19.2692C23.4566 23.7353 19.1197 27.7289 14.7663 26.252C11.5945 25.2501 9.35163 22.0478 9.51239 18.7157C9.63707 16.1277 10.9697 13.819 13.193 12.4623C15.4756 11.0696 18.3186 10.949 20.6816 12.2174C23.1118 13.5219 24.8317 16.0111 25.73 18.5708C25.9342 19.1522 26.0936 19.7496 26.2069 20.3552C28.1885 31.1227 16.305 38.9196 7.25717 32.9094C1.03956 28.7006 -1.70159 20.1267 1.09528 12.9674C8.16602 -4.57993 33.5744 0.0320175 33.9992 18.9712V18.9808V18.9803Z" fill="url(#paint0_linear_1060_22)"/>
</g>
<path d="M108.77 14.3798H105.003C104.858 13.5748 104.588 12.8665 104.194 12.2548C103.799 11.643 103.316 11.1239 102.745 10.6972C102.173 10.2706 101.534 9.94866 100.825 9.73133C100.125 9.514 99.3804 9.40534 98.5915 9.40534C97.1668 9.40534 95.891 9.76353 94.7641 10.4799C93.6453 11.1963 92.7598 12.2467 92.1079 13.6312C91.4639 15.0157 91.142 16.706 91.142 18.7022C91.142 20.7145 91.4639 22.4129 92.1079 23.7974C92.7598 25.1819 93.6493 26.2283 94.7762 26.9366C95.9031 27.6449 97.1708 27.9991 98.5795 27.9991C99.3602 27.9991 100.101 27.8944 100.801 27.6852C101.509 27.4678 102.149 27.1499 102.721 26.7313C103.292 26.3128 103.775 25.8016 104.17 25.198C104.572 24.5862 104.85 23.8859 105.003 23.0971L108.77 23.1092C108.569 24.3246 108.178 25.4435 107.599 26.4657C107.027 27.4799 106.291 28.3573 105.389 29.0978C104.496 29.8303 103.473 30.3978 102.322 30.8002C101.171 31.2027 99.9156 31.4039 98.5553 31.4039C96.4142 31.4039 94.5065 30.8968 92.8323 29.8826C91.1581 28.8604 89.838 27.3994 88.8721 25.4998C87.9142 23.6002 87.4353 21.3343 87.4353 18.7022C87.4353 16.0621 87.9182 13.7962 88.8841 11.9046C89.85 10.005 91.1701 8.54809 92.8444 7.53389C94.5186 6.51164 96.4223 6.00051 98.5553 6.00051C99.8673 6.00051 101.091 6.18967 102.226 6.56798C103.369 6.93825 104.395 7.48559 105.305 8.21003C106.214 8.92641 106.967 9.80378 107.562 10.8421C108.158 11.8724 108.561 13.0516 108.77 14.3798Z" fill="white"/>
<path d="M128.756 6.00051C129.859 6.00856 130.946 6.20979 132.016 6.6042C133.087 6.99861 134.053 7.64255 134.914 8.53602C135.783 9.42949 136.476 10.6369 136.991 12.1582C137.514 13.6714 137.78 15.555 137.788 17.8087C137.788 19.974 137.57 21.9018 137.136 23.5921C136.701 25.2744 136.077 26.6951 135.264 27.8542C134.459 29.0133 133.481 29.8947 132.33 30.4984C131.179 31.1021 129.883 31.4039 128.442 31.4039C126.969 31.4039 125.661 31.1141 124.518 30.5346C123.375 29.9551 122.446 29.1542 121.729 28.1319C121.013 27.1016 120.566 25.9184 120.389 24.5822H124.072C124.313 25.6447 124.804 26.506 125.545 27.166C126.293 27.818 127.259 28.144 128.442 28.144C130.254 28.144 131.666 27.3551 132.68 25.7775C133.695 24.1918 134.206 21.9783 134.214 19.1369H134.021C133.602 19.8291 133.079 20.4248 132.451 20.9238C131.831 21.4229 131.135 21.8092 130.362 22.0829C129.589 22.3566 128.764 22.4934 127.887 22.4934C126.462 22.4934 125.166 22.1433 123.999 21.443C122.832 20.7427 121.902 19.7808 121.21 18.5573C120.518 17.3338 120.172 15.9373 120.172 14.3677C120.172 12.8061 120.526 11.3895 121.234 10.1177C121.951 8.84592 122.949 7.83976 124.229 7.09923C125.517 6.35065 127.026 5.98441 128.756 6.00051ZM128.768 9.13971C127.827 9.13971 126.977 9.37314 126.221 9.84C125.472 10.2988 124.881 10.9226 124.446 11.7114C124.011 12.4922 123.794 13.3615 123.794 14.3194C123.794 15.2773 124.003 16.1466 124.422 16.9274C124.848 17.7001 125.428 18.3159 126.16 18.7747C126.901 19.2254 127.746 19.4508 128.696 19.4508C129.404 19.4508 130.064 19.314 130.676 19.0403C131.288 18.7666 131.823 18.3883 132.282 17.9053C132.741 17.4143 133.099 16.8589 133.357 16.2391C133.614 15.6194 133.743 14.9674 133.743 14.2832C133.743 13.3736 133.526 12.5284 133.091 11.7477C132.664 10.9669 132.077 10.339 131.328 9.86415C130.58 9.38119 129.726 9.13971 128.768 9.13971Z" fill="white"/>
<path d="M150.851 6.33858V31.0658H147.108V10.0815H146.963L141.047 13.9451V10.3712L147.216 6.33858H150.851Z" fill="white"/>
<path d="M42 31.0658H45.9602L48.2249 24.5218H57.8863L60.147 31.0658H64.1072L55.2088 6.33858H50.8984L42 31.0658ZM56.8018 21.3826H49.3112L52.9631 10.8301H53.1562L56.8018 21.3826Z" fill="white"/>
<path d="M66.9981 6.33858V31.0658H70.7289V21.7086H75.7999C75.8806 21.7086 75.9608 21.708 76.0403 21.7069L81.0641 31.0658H85.3141L79.8415 21.0723C80.095 20.9772 80.3375 20.8713 80.5691 20.7548C81.8409 20.1189 82.7907 19.2294 83.4185 18.0864C84.0544 16.9354 84.3724 15.6033 84.3724 14.09C84.3724 12.5687 84.0585 11.2285 83.4306 10.0694C82.8028 8.90226 81.853 7.98867 80.5812 7.32863C79.3175 6.6686 77.7277 6.33858 75.812 6.33858H66.9981ZM70.7289 18.497V9.53815H75.4136C76.6451 9.53815 77.6392 9.72328 78.3958 10.0935C79.1605 10.4558 79.7199 10.979 80.0741 11.6632C80.4363 12.3473 80.6174 13.1563 80.6174 14.09C80.6174 15.0157 80.4403 15.8085 80.0862 16.4685C79.732 17.1286 79.1726 17.6317 78.4079 17.9778C77.6513 18.3239 76.6693 18.497 75.4619 18.497H70.7289Z" fill="white"/>
<defs>
<linearGradient id="paint0_linear_1060_22" x1="24.5193" y1="33.9079" x2="11.135" y2="2.10199" gradientUnits="userSpaceOnUse">
<stop stop-color="#E61417"/>
<stop offset="1" stop-color="#FF8C00"/>
</linearGradient>
<clipPath id="clip0_1060_22">
<rect width="34" height="34" fill="white" transform="translate(0 2)"/>
</clipPath>
</defs>
</svg>
